<svg width="19" height="23" viewBox="0 0 19 23" fill="none" xmlns="http://www.w3.org/2000/svg">
<path d="M4.64545 9.99001C4.64545 10.8462 4.85474 11.6263 5.27333 12.3303C5.69191 13.0343 6.23417 13.6051 6.9001 14.0427C6.70983 13.7763 6.56257 13.4909 6.4583 13.1865C6.35403 12.882 6.30152 12.5586 6.30076 12.2161C6.30076 11.7785 6.38181 11.3694 6.54392 10.9889C6.70603 10.6084 6.93891 10.2754 7.24258 9.99001L9.46868 7.79245L11.7233 9.99001C12.0278 10.2754 12.2561 10.6084 12.4083 10.9889C12.5605 11.3694 12.6366 11.7785 12.6366 12.2161C12.6366 12.5586 12.5845 12.882 12.4802 13.1865C12.3759 13.4909 12.2283 13.7763 12.0373 14.0427C12.7032 13.6051 13.2455 13.0343 13.664 12.3303C14.0826 11.6263 14.2919 10.8462 14.2919 9.99001C14.2919 9.09577 14.0541 8.2586 13.5784 7.47851C13.1028 6.69842 12.4654 6.08957 11.6662 5.65196L11.2952 6.13714C11.2001 6.23227 11.0955 6.31294 10.9813 6.37916C10.8671 6.44537 10.7435 6.47924 10.6103 6.48076C10.3629 6.48076 10.1536 6.39514 9.9824 6.2239C9.81116 6.05266 9.72554 5.84337 9.72554 5.59602V3.31284L8.92642 3.76947C8.39368 4.0739 7.81337 4.51646 7.1855 5.09715C6.55762 5.67784 5.97731 6.38182 5.44457 7.20909C4.91182 8.03637 4.64545 8.96372 4.64545 9.99116M9.46868 10.1909L8.41271 11.2184C8.2605 11.3706 8.15585 11.5277 8.09877 11.6898C8.04169 11.852 8.01315 12.0278 8.01315 12.2173C8.01315 12.6168 8.15585 12.9547 8.44125 13.231C8.72665 13.5073 9.06912 13.645 9.46868 13.6443C9.86824 13.6435 10.2107 13.5057 10.4961 13.231C10.7815 12.9563 10.9242 12.6183 10.9242 12.2173C10.9242 12.008 10.8957 11.8272 10.8386 11.675C10.7815 11.5228 10.6769 11.3706 10.5247 11.2184L9.46868 10.1909ZM2.61912 22.9471C1.99125 22.9471 1.45394 22.7237 1.00719 22.277C0.560451 21.8302 0.336699 21.2925 0.335938 20.6639V4.68161C0.335938 3.42585 0.783062 2.35085 1.67731 1.45661C2.57156 0.562358 3.64656 0.115234 4.90231 0.115234H14.0351C15.2908 0.115234 16.3658 0.562358 17.2601 1.45661C18.1543 2.35085 18.6014 3.42585 18.6014 4.68161V20.6639C18.6014 21.2918 18.3781 21.8295 17.9313 22.277C17.4846 22.7245 16.9469 22.9479 16.3182 22.9471H2.61912ZM6.0439 17.2391C6.67178 17.2391 7.14288 17.0489 7.45719 16.6683C7.77151 16.2878 8.44201 16.0975 9.46868 16.0975C10.4954 16.0975 11.1803 16.2878 11.5235 16.6683C11.8668 17.0489 12.3234 17.2391 12.8935 17.2391C13.4635 17.2391 13.9201 17.0489 14.2634 16.6683C14.6066 16.2878 15.2916 16.0975 16.3182 16.0975V4.68161C16.3182 4.05373 16.0949 3.51642 15.6481 3.06968C15.2014 2.62293 14.6637 2.39918 14.0351 2.39842H4.90231C4.27443 2.39842 3.73712 2.62217 3.29038 3.06968C2.84364 3.51718 2.61988 4.05449 2.61912 4.68161V16.0975C3.64656 16.0975 4.31743 16.2878 4.63175 16.6683C4.94607 17.0489 5.41679 17.2391 6.0439 17.2391Z" fill="#1E1E1E"/>
</svg>
